<?xml version="1.0" encoding="UTF-8"?>
<svg version="1.1" xmlns="http://www.w3.org/2000/svg" width="1024" height="1024">
<path d="M0 0 C337.92 0 675.84 0 1024 0 C1024 337.92 1024 675.84 1024 1024 C686.08 1024 348.16 1024 0 1024 C0 686.08 0 348.16 0 0 Z " fill="#FEFEFE" transform="translate(0,0)"/>
<path d="M0 0 C6.24027813 3.57306248 11.39534792 8.26699894 13.95703125 15.17578125 C15.97541963 24.67697533 15.14293509 33.28271327 10.34375 41.7265625 C7.85742066 45.26244889 5.07803659 48.21071546 1.87890625 51.109375 C-0.14875424 53.04295204 -1.9366012 54.9851698 -3.7578125 57.10546875 C-7.95340168 61.95889114 -12.4544883 66.47615079 -17 71 C-17.80759766 71.81146484 -18.61519531 72.62292969 -19.44726562 73.45898438 C-23.01270111 77.01867379 -26.5869781 80.51458622 -30.4140625 83.79296875 C-35.48514371 88.15831026 -40.1973633 92.88632444 -44.92553711 97.61523438 C-46.48858734 99.17610327 -48.05947365 100.72877888 -49.63085938 102.28125 C-56.06126807 108.67633512 -61.91000957 115.33360536 -67.5625 122.4375 C-68.44790146 123.47806573 -69.33953405 124.51342634 -70.2421875 125.5390625 C-90.6801719 149.03183461 -107.29522064 179.38688568 -105.75341797 211.18896484 C-104.89828894 221.26024153 -100.17635035 229.62562827 -92.56640625 236.1484375 C-75.83925998 248.24109003 -54.34192714 249.4787863 -34.51611328 247.06689453 C2.4083622 241.06580863 38.08142258 224.53151318 72.45466614 210.3130188 C130.93258097 186.1586189 130.93258097 186.1586189 153.4375 185.4375 C154.74332031 185.3859375 156.04914063 185.334375 157.39453125 185.28125 C178.89320216 184.69281392 198.35299947 191.37026826 214.25 206.16015625 C229.47973472 222.01539794 237.9834606 242.86677074 237.70703125 264.85546875 C236.41166303 282.07072466 227.99524307 297.93412341 216.4375 310.4375 C215.85226562 311.09105469 215.26703125 311.74460937 214.6640625 312.41796875 C194.11020572 334.27453476 162.96624557 339.28000828 134.4375 340.4375 C107.67420832 341.19024624 81.00273672 340.96998778 54.4375 337.4375 C53.69189819 337.34039734 52.94629639 337.24329468 52.17810059 337.14324951 C-13.66464842 328.551287 -104.05361072 316.55258658 -147.5625 260.4375 C-163.70444826 237.08127318 -167.25287415 212.03437387 -162.53125 184.515625 C-157.48758959 157.23400732 -145.8593344 130.90525275 -129.5625 108.4375 C-129.07442871 107.7554248 -128.58635742 107.07334961 -128.08349609 106.37060547 C-117.27962557 91.29296006 -105.85281944 76.78359348 -93.16015625 63.24609375 C-91.11669157 61.03669359 -89.12395587 58.80434381 -87.1484375 56.53515625 C-77.81446286 45.82731717 -67.89360315 35.65819898 -57.88497925 25.58374023 C-56.8529922 24.54436283 -55.82260186 23.50339713 -54.79397583 22.46069336 C-22.2891053 -10.44801811 -22.2891053 -10.44801811 0 0 Z " fill="#6A0CCF" transform="translate(483.5625,368.5625)"/>
<path d="M0 0 C0.91038025 -0.00571014 1.8207605 -0.01142029 2.75872803 -0.01730347 C3.75594879 -0.01842133 4.75316956 -0.01953918 5.78060913 -0.02069092 C6.83328979 -0.02565582 7.88597046 -0.03062073 8.97055054 -0.03573608 C12.47023165 -0.05039054 15.96986715 -0.0571719 19.46957397 -0.06268311 C21.91646322 -0.06844022 24.36335246 -0.07419788 26.8102417 -0.07995605 C31.96019704 -0.09048102 37.11013673 -0.09631115 42.26010132 -0.09979248 C48.78972892 -0.10522278 55.31914219 -0.12912529 61.84870338 -0.15776443 C66.91781156 -0.17661591 71.98687097 -0.18160862 77.0560112 -0.18312836 C79.4580233 -0.18611467 81.86003541 -0.19400298 84.26201248 -0.20731354 C106.02584446 -0.31911762 128.02711389 0.24490436 148.55551147 8.14044189 C149.72855835 8.57098877 150.90160522 9.00153564 152.11019897 9.44512939 C166.71619407 15.20294929 178.42467059 24.27305287 189.55551147 35.14044189 C190.28254272 35.80559814 191.00957397 36.47075439 191.75863647 37.15606689 C213.84797425 57.85395032 221.68281519 89.33598637 230.85165405 117.06549072 C234.29709227 127.46909461 237.87559971 137.81764112 241.55551147 148.14044189 C247.10273401 163.70913074 252.38806817 179.3601571 257.54267883 195.06311035 C258.66352789 198.4738203 259.80568677 201.87439937 260.99325562 205.26251221 C261.22428482 205.93003006 261.45531403 206.59754791 261.69334412 207.28529358 C262.32362529 209.10232515 262.96267687 210.91630787 263.60238647 212.7300415 C265.91216821 220.99472926 265.81804001 229.58986556 261.74691772 237.24981689 C257.32903776 244.26048542 252.11226013 248.01395919 244.74301147 251.45294189 C234.78264299 253.60125667 226.10843211 251.87039153 217.29769897 246.85528564 C208.53000379 240.87125034 204.69114452 231.88718166 201.45394897 222.11700439 C201.09535797 221.07020004 200.73676697 220.02339569 200.36730957 218.94487 C199.20947022 215.55575202 198.06992459 212.1607939 196.93051147 208.76544189 C196.12901803 206.40881831 195.32627371 204.05261981 194.52230835 201.69683838 C192.92476548 197.00987793 191.33402066 192.3207074 189.74984741 187.62921143 C187.86993687 182.0637376 185.97369565 176.50412021 184.06332397 170.94903564 C183.67504929 169.81977158 183.67504929 169.81977158 183.27893066 168.66769409 C182.77931741 167.21497495 182.2796153 165.76228637 181.77981567 164.30963135 C180.59279074 160.85708626 179.40991271 157.40312369 178.22738647 153.94903564 C178.00396576 153.2966391 177.78054504 152.64424255 177.550354 151.97207642 C176.43587388 148.71663068 175.32333264 145.46053652 174.2137146 142.20343018 C162.92991851 101.3482875 162.92991851 101.3482875 136.18051147 70.76544189 C134.32320502 69.85348644 132.44792457 68.97711547 130.55551147 68.14044189 C129.70344116 67.76274658 128.85137085 67.38505127 127.97348022 66.99591064 C113.21755949 61.08911779 98.16439257 60.70740999 82.5081501 60.72975159 C79.04710588 60.73428999 75.58655682 60.72006492 72.12556458 60.70135498 C63.54321691 60.65868164 54.96088367 60.64731862 46.37844849 60.63513184 C39.09141758 60.62358043 31.80461743 60.59998145 24.51768303 60.56044006 C21.1204069 60.54693435 17.72344874 60.55102628 14.32615662 60.55584717 C12.23536784 60.54650451 10.14458253 60.53633518 8.05380249 60.52520752 C6.65327637 60.53442986 6.65327637 60.53442986 5.22445679 60.5438385 C-4.21193356 60.45599467 -12.24327079 58.05650515 -19.22573853 51.45684814 C-25.21735971 45.14787414 -28.5613291 38.4036687 -28.94448853 29.64044189 C-28.57097853 21.09790689 -25.33085017 14.11714677 -19.51480103 7.89825439 C-14.11282541 3.31167132 -7.12009108 0.02678654 0 0 Z " fill="#6B0CCF" transform="translate(390.4444885253906,261.85955810546875)"/>
<path d="M0 0 C4.72977718 3.39195602 7.40371178 7.31847363 8.53125 13.0546875 C9.19026702 19.57548752 8.54963429 25.91011178 4.7109375 31.375 C-2.88532914 38.68318467 -14.15568176 41.56958398 -24.24609375 43.2578125 C-25.19436035 43.42837158 -26.14262695 43.59893066 -27.11962891 43.7746582 C-32.81380552 44.57434916 -38.56577902 44.46044555 -44.3046875 44.49609375 C-46.22758606 44.51037666 -46.22758606 44.51037666 -48.18933105 44.52494812 C-52.35407223 44.55179309 -56.51878061 44.56210077 -60.68359375 44.5703125 C-61.38789143 44.5723468 -62.0921891 44.5743811 -62.81782913 44.57647705 C-86.82089526 44.64158881 -110.43975052 43.52914555 -134.24609375 40.2578125 C-130.92550839 38.04408893 -127.56384645 36.81666485 -123.8359375 35.4921875 C-122.29000465 34.93350715 -120.744193 34.37449135 -119.19848633 33.81518555 C-118.38183502 33.52106781 -117.56518372 33.22695007 -116.7237854 32.92391968 C-102.85590883 27.92254064 -89.14542939 22.66548465 -75.55859375 16.9453125 C-14.80507099 -8.55404102 -14.80507099 -8.55404102 0 0 Z " fill="#FDFBFE" transform="translate(658.24609375,612.7421875)"/>
<path d="M0 0 C0.99 0.33 1.98 0.66 3 1 C-1.67466337 6.62303757 -6.67765667 11.79741554 -11.875 16.9375 C-12.65875 17.71673828 -13.4425 18.49597656 -14.25 19.29882812 C-16.16438581 21.20154085 -18.08108034 23.10186171 -20 25 C-20 22 -20 22 -18.27172852 19.96289062 C-17.48209717 19.20169922 -16.69246582 18.44050781 -15.87890625 17.65625 C-15.02619141 16.82222656 -14.17347656 15.98820312 -13.29492188 15.12890625 C-12.39322266 14.26136719 -11.49152344 13.39382813 -10.5625 12.5 C-8.78850389 10.78585875 -7.0187549 9.06730785 -5.25390625 7.34375 C-4.46314697 6.58255859 -3.6723877 5.82136719 -2.85766602 5.03710938 C-0.79017274 3.04647583 -0.79017274 3.04647583 0 0 Z " fill="#5205C8" transform="translate(451,449)"/>
</svg>
