<?xml version="1.0" encoding="UTF-8"?>
<svg version="1.1" xmlns="http://www.w3.org/2000/svg" width="1024" height="1024">
<path d="M0 0 C337.92 0 675.84 0 1024 0 C1024 337.92 1024 675.84 1024 1024 C686.08 1024 348.16 1024 0 1024 C0 686.08 0 348.16 0 0 Z " fill="#2C0163" transform="translate(0,0)"/>
<path d="M0 0 C6.82366123 4.91503204 11.35226757 12.77781517 13 21 C14.18970003 29.42987449 11.28221484 37.09054625 6.61328125 44.07421875 C3.56859317 47.78623573 -0.02422838 50.88751118 -3.671875 53.9921875 C-6.45938344 56.39617968 -9.16918111 58.88012561 -11.875 61.375 C-17.45861672 66.52312572 -17.45861672 66.52312572 -20.09399414 68.84448242 C-27.25203448 75.17548937 -34.0168159 81.86408502 -40.76000977 88.62963867 C-42.69109547 90.56610549 -44.62749882 92.49713956 -46.56445312 94.42773438 C-52.58833081 100.44812826 -58.52159851 106.47131986 -64 113 C-64.86882812 113.98742187 -65.73765625 114.97484375 -66.6328125 115.9921875 C-87.34476438 139.95052682 -109.16960885 169.55521174 -108.28125 202.68359375 C-107.29875723 214.26882102 -102.5144815 224.44538457 -93.96875 232.41015625 C-78.2581748 245.09706916 -60.39150386 246.24047773 -41 245 C-3.89828418 240.66027965 31.80405445 222.26651294 65.875 207.9375 C66.50831238 207.67118774 67.14162476 207.40487549 67.79412842 207.13049316 C69.63750997 206.35526766 71.48086468 205.57997835 73.32421875 204.8046875 C75.54937231 203.86953736 77.77462527 202.93462369 80 202 C80.96502441 201.59426758 81.93004883 201.18853516 82.92431641 200.77050781 C95.06712279 195.69193325 107.26032307 191.34000035 120 188 C121.26714844 187.65839844 122.53429687 187.31679688 123.83984375 186.96484375 C133.81962599 184.75054738 143.88208242 184.66030121 154.0625 184.5625 C155.13736664 184.54404022 155.13736664 184.54404022 156.23394775 184.52520752 C169.84789521 184.33010504 183.18231857 186.20972157 195.375 192.6875 C196.3640332 193.1990564 196.3640332 193.1990564 197.37304688 193.72094727 C203.40441622 196.97513981 208.26015576 201.05481955 213 206 C213.69351562 206.66257812 214.38703125 207.32515625 215.1015625 208.0078125 C228.52797707 221.64158482 232.53773991 239.74037922 232.41796875 258.27197266 C231.92770106 277.08293122 225.78953632 294.90308886 213 309 C212.41992188 309.66 211.83984375 310.32 211.2421875 311 C191.03387239 332.64572665 161.12657315 339.29834144 132.57226562 340.37109375 C124.81808018 340.5461233 117.06775497 340.50876534 109.3125 340.4375 C107.93638462 340.43023176 106.56026524 340.42368764 105.18414307 340.41784668 C85.62751656 340.32850993 66.38384895 339.74277657 47 337 C44.6799477 336.70497776 42.35962815 336.41205054 40.0390625 336.12109375 C-109.20209761 316.75202472 -109.20209761 316.75202472 -147.48950195 268.47973633 C-158.30048635 254.44374619 -164.26123381 240.26797822 -168 223 C-168.26937378 221.83585571 -168.26937378 221.83585571 -168.54418945 220.64819336 C-171.23569782 205.01091899 -169.99026241 186.27933349 -166 171 C-165.82259277 170.27361328 -165.64518555 169.54722656 -165.46240234 168.79882812 C-155.98100551 130.68023527 -134.1747454 96.77974092 -108 68 C-107.45408203 67.39768555 -106.90816406 66.79537109 -106.34570312 66.17480469 C-99.45450771 58.60413902 -92.34691155 51.25512665 -85.125 44 C-84.43567383 43.30600098 -83.74634766 42.61200195 -83.03613281 41.89697266 C-79.15448117 38.0274687 -75.16715495 34.34867753 -71.01806641 30.76855469 C-67.46208792 27.65223384 -64.0536246 24.37993898 -60.625 21.125 C-59.12682497 19.71298667 -57.62813006 18.30152473 -56.12890625 16.890625 C-54.21912164 15.09267268 -52.30960657 13.29468233 -50.40966797 11.48632812 C-35.72586219 -2.47651369 -19.186131 -10.81450016 0 0 Z " fill="#FCFDFD" transform="translate(488,370)"/>
<path d="M0 0 C1.0706218 -0.00701431 2.14124359 -0.01402863 3.24430847 -0.02125549 C4.9913633 -0.00978989 4.9913633 -0.00978989 6.77371216 0.00190735 C8.0085585 -0.00174332 9.24340485 -0.00539398 10.51567078 -0.00915527 C13.89870697 -0.01586939 17.28119241 -0.009146 20.66417456 0.00417686 C24.21925214 0.01553063 27.77431622 0.01138017 31.32940674 0.00942993 C37.30975038 0.00854704 43.28998068 0.0196166 49.27029419 0.03804016 C56.14851003 0.05911096 63.02655875 0.06273828 69.9048003 0.0564782 C76.55068244 0.05074263 83.19650672 0.05648536 89.84238052 0.06765175 C92.65457371 0.07225256 95.46673096 0.07319132 98.27892685 0.0710659 C136.90548747 0.05370179 167.08229735 6.93670572 195.60232544 34.3742218 C196.57105591 35.23080383 196.57105591 35.23080383 197.55935669 36.10469055 C201.49860455 39.69337303 204.53303664 43.87093534 207.53982544 48.2492218 C207.92283813 48.7948175 208.30585083 49.34041321 208.70046997 49.90254211 C216.96432256 62.35136021 222.056893 76.66066447 226.72732544 90.7492218 C227.28593107 92.40902364 227.84519541 94.0686039 228.40505981 95.72798157 C232.9651938 109.28783325 237.39219895 122.89280023 241.77713013 136.51020813 C245.23908204 147.23945855 248.79385032 157.93347936 252.42578888 168.60614586 C253.88792181 172.9069956 255.34248306 177.21041586 256.79788589 181.51354694 C258.23416051 185.75614196 259.68379322 189.99387793 261.14297295 194.22864532 C262.05758644 196.89337435 262.95945263 199.56229726 263.85818863 202.23241806 C264.48101145 204.0698576 265.11928939 205.9020359 265.75805664 207.73399353 C268.99044677 217.39720532 270.17578209 225.51459108 265.92263794 234.98750305 C261.59156693 242.8167468 255.29636805 248.13329767 246.78201294 250.9835968 C237.74777817 252.60263529 228.4651607 252.34835334 220.60232544 247.3742218 C219.54078247 246.72066711 219.54078247 246.72066711 218.45779419 246.0539093 C210.68926678 240.77880535 207.23954852 233.41466024 204.54373169 224.62812805 C204.27834091 223.7970755 204.01295013 222.96602295 203.73951721 222.10978699 C203.16949446 220.32172127 202.60428523 218.53211508 202.04348755 216.74113464 C200.52520416 211.89525205 198.96944602 207.06136563 197.41873169 202.2257843 C197.1015921 201.2336644 196.78445251 200.24154449 196.45770264 199.21936035 C193.03130909 188.52833525 189.39570655 177.91196623 185.73583984 167.29908752 C182.38031832 157.56598726 179.07657027 147.82081788 175.89138794 138.0304718 C175.27173076 136.13532691 174.65194023 134.24022562 174.03201294 132.34516907 C173.14301869 129.62674538 172.25791191 126.90745678 171.38748169 124.18302917 C164.69223493 103.22859865 156.27352679 80.8797088 135.72732544 70.0617218 C124.24048705 64.67680903 113.01254459 63.24492051 100.48562622 63.15644836 C99.38715363 63.14482666 98.28868103 63.13320496 97.15692139 63.12123108 C94.77962072 63.09609333 92.40230085 63.07272212 90.02496719 63.05092621 C83.65082571 62.98922647 77.27700876 62.90187718 70.90310669 62.8195343 C62.80310763 62.71633712 54.70317097 62.62120805 46.60281372 62.55097961 C40.04565242 62.49403513 33.48908619 62.41139373 26.93239975 62.31403351 C24.43912458 62.28141549 21.94571866 62.25754268 19.45227432 62.24269867 C15.96008592 62.22084058 12.46954444 62.16860759 8.97781372 62.10957336 C7.95518433 62.11041931 6.93255493 62.11126526 5.87893677 62.11213684 C-2.88738242 61.90921066 -8.77745568 58.91592303 -15.21017456 53.0617218 C-22.38929907 45.44951786 -24.03258882 36.7496093 -23.80392456 26.6007843 C-23.2513457 17.84240932 -18.45975108 10.67013565 -12.20626831 4.77656555 C-8.15046778 1.63178717 -5.19749808 -0.00094029 0 0 Z " fill="#FCFDFE" transform="translate(386.3976745605469,261.6257781982422)"/>
<path d="M0 0 C4.58479706 4.81403691 4.95063052 9.48318083 4.8125 15.90625 C4.18509532 21.36467069 1.68625457 24.43874543 -2.1875 28.3125 C-17.26879906 39.83188421 -38.67801526 37.8589296 -56.5625 37.875 C-58.03559631 37.87750763 -58.03559631 37.87750763 -59.53845215 37.88006592 C-73.16242738 37.8814466 -86.67820114 37.45878668 -100.25 36.25 C-100.97003204 36.18687622 -101.69006409 36.12375244 -102.43191528 36.05871582 C-109.91359381 35.38471601 -117.20625833 34.47253368 -124.5 32.625 C-121.38097027 31.0133446 -118.2322391 29.78554895 -114.91845703 28.62158203 C-105.31134918 25.23240219 -95.95637575 21.32434918 -86.625 17.25 C-85.97959259 16.96845062 -85.33418518 16.68690125 -84.66921997 16.39682007 C-79.22329137 14.01928139 -73.78313516 11.62866127 -68.34326172 9.23730469 C-17.22272174 -13.18744636 -17.22272174 -13.18744636 0 0 Z " fill="#2B0362" transform="translate(658.5,618.375)"/>
<path d="M0 0 C2.92409979 1.1519181 5.77330604 2.35998729 8.625 3.6875 C11.91864341 5.38188135 11.91864341 5.38188135 15 4 C15 4.66 15 5.32 15 6 C18.63 6.99 22.26 7.98 26 9 C26 9.33 26 9.66 26 10 C16.59658443 10.83585916 7.37663564 6.68571629 0 1 C0 0.67 0 0.34 0 0 Z " fill="#1D0A50" transform="translate(398,605)"/>
<path d="M0 0 C-1.32 1.32 -2.64 2.64 -4 4 C-4.33 3.67 -4.66 3.34 -5 3 C-7.32817964 2.63239269 -9.6618385 2.29758419 -12 2 C-8.40939861 -1.59060139 -4.69614193 -1.20757935 0 0 Z " fill="#2D0F60" transform="translate(659,706)"/>
<path d="M0 0 C1.33332095 2.6666419 0.67102033 4.16680303 0 7 C-0.66 7 -1.32 7 -2 7 C-2.19335938 7.62648438 -2.38671875 8.25296875 -2.5859375 8.8984375 C-2.84632813 9.71570313 -3.10671875 10.53296875 -3.375 11.375 C-3.63023437 12.18710937 -3.88546875 12.99921875 -4.1484375 13.8359375 C-5 16 -5 16 -7 18 C-6.44380331 13.3110507 -5.11817327 9.80075733 -2.9375 5.625 C-2.38964844 4.56539062 -1.84179688 3.50578125 -1.27734375 2.4140625 C-0.85582031 1.61742187 -0.43429687 0.82078125 0 0 Z " fill="#1C0E4D" transform="translate(391,528)"/>
<path d="M0 0 C0 3.68553144 -0.8522582 5.03759752 -3 8 C-5.6875 9.8125 -5.6875 9.8125 -8 11 C-6.63629701 8.00779732 -5.05091917 5.70973471 -2.875 3.25 C-2.33617187 2.63640625 -1.79734375 2.0228125 -1.2421875 1.390625 C-0.62730469 0.70226562 -0.62730469 0.70226562 0 0 Z " fill="#1B074D" transform="translate(421,486)"/>
<path d="M0 0 C4.93928888 -0.3367697 5.78492722 -0.16130459 10 3 C6.7 3 3.4 3 0 3 C0 2.01 0 1.02 0 0 Z " fill="#37136C" transform="translate(560,709)"/>
</svg>
